<mxfile host="Electron" modified="2023-04-24T20:53:45.765Z" agent="Mozilla/5.0 (Windows NT 10.0; Win64; x64) AppleWebKit/537.36 (KHTML, like Gecko) draw.io/21.2.1 Chrome/112.0.5615.87 Electron/24.1.2 Safari/537.36" etag="6vmmFn8rdzjFQLUtcb9W" version="21.2.1" type="device">
  <diagram name="Strona-1" id="6Kef1FsErvlOKoJy8i0X">
    <mxGraphModel dx="724" dy="428" grid="0" gridSize="10" guides="1" tooltips="1" connect="1" arrows="1" fold="1" page="1" pageScale="1" pageWidth="827" pageHeight="1169" math="0" shadow="0">
      <root>
        <mxCell id="0" />
        <mxCell id="1" parent="0" />
        <mxCell id="ot7N1fyEFP1pkoiua7gK-6" style="edgeStyle=orthogonalEdgeStyle;rounded=0;orthogonalLoop=1;jettySize=auto;html=1;exitX=0;exitY=0.5;exitDx=0;exitDy=0;entryX=1;entryY=0.5;entryDx=0;entryDy=0;" parent="1" source="ot7N1fyEFP1pkoiua7gK-3" target="ot7N1fyEFP1pkoiua7gK-4" edge="1">
          <mxGeometry relative="1" as="geometry" />
        </mxCell>
        <mxCell id="ot7N1fyEFP1pkoiua7gK-3" value="&lt;b&gt;Slaves&amp;nbsp;&lt;/b&gt;&lt;br&gt;CAN handling&lt;br&gt;passing sensor data" style="rounded=0;whiteSpace=wrap;html=1;" parent="1" vertex="1">
          <mxGeometry x="604" y="345" width="120" height="60" as="geometry" />
        </mxCell>
        <mxCell id="ot7N1fyEFP1pkoiua7gK-4" value="&lt;b&gt;Control&lt;/b&gt;&lt;br&gt;decides whether action is necessary" style="rounded=0;whiteSpace=wrap;html=1;" parent="1" vertex="1">
          <mxGeometry x="324" y="345" width="120" height="60" as="geometry" />
        </mxCell>
        <mxCell id="ot7N1fyEFP1pkoiua7gK-13" style="edgeStyle=orthogonalEdgeStyle;rounded=0;orthogonalLoop=1;jettySize=auto;html=1;exitX=0.5;exitY=1;exitDx=0;exitDy=0;entryX=0.5;entryY=0;entryDx=0;entryDy=0;" parent="1" source="ot7N1fyEFP1pkoiua7gK-5" target="ot7N1fyEFP1pkoiua7gK-4" edge="1">
          <mxGeometry relative="1" as="geometry" />
        </mxCell>
        <mxCell id="ot7N1fyEFP1pkoiua7gK-5" value="&lt;b&gt;Web app&lt;/b&gt;&lt;br&gt;Wi-Fi handling&lt;br&gt;HTPP server&lt;br&gt;HTML parsing" style="rounded=0;whiteSpace=wrap;html=1;" parent="1" vertex="1">
          <mxGeometry x="324" y="152" width="120" height="83" as="geometry" />
        </mxCell>
        <mxCell id="ot7N1fyEFP1pkoiua7gK-10" value="&lt;b&gt;Effectors&lt;/b&gt;&lt;br&gt;controls connected effectors" style="rounded=0;whiteSpace=wrap;html=1;" parent="1" vertex="1">
          <mxGeometry x="94" y="345" width="120" height="60" as="geometry" />
        </mxCell>
        <mxCell id="ot7N1fyEFP1pkoiua7gK-12" value="sensor data, slave ID" style="text;html=1;align=center;verticalAlign=middle;resizable=0;points=[];autosize=1;strokeColor=none;fillColor=none;" parent="1" vertex="1">
          <mxGeometry x="464" y="345" width="140" height="30" as="geometry" />
        </mxCell>
        <mxCell id="ot7N1fyEFP1pkoiua7gK-28" value="" style="endArrow=classic;html=1;rounded=0;exitX=0;exitY=0.5;exitDx=0;exitDy=0;entryX=1;entryY=0.5;entryDx=0;entryDy=0;" parent="1" source="ot7N1fyEFP1pkoiua7gK-4" target="ot7N1fyEFP1pkoiua7gK-10" edge="1">
          <mxGeometry width="50" height="50" relative="1" as="geometry">
            <mxPoint x="164" y="285" as="sourcePoint" />
            <mxPoint x="214" y="235" as="targetPoint" />
          </mxGeometry>
        </mxCell>
        <mxCell id="ot7N1fyEFP1pkoiua7gK-29" value="effectors on/off" style="text;html=1;align=center;verticalAlign=middle;resizable=0;points=[];autosize=1;strokeColor=none;fillColor=none;" parent="1" vertex="1">
          <mxGeometry x="221" y="375" width="100" height="30" as="geometry" />
        </mxCell>
        <mxCell id="ot7N1fyEFP1pkoiua7gK-31" value="" style="endArrow=classic;html=1;rounded=0;exitX=1;exitY=0.75;exitDx=0;exitDy=0;entryX=0;entryY=0.75;entryDx=0;entryDy=0;" parent="1" source="ot7N1fyEFP1pkoiua7gK-4" target="ot7N1fyEFP1pkoiua7gK-3" edge="1">
          <mxGeometry width="50" height="50" relative="1" as="geometry">
            <mxPoint x="560" y="530" as="sourcePoint" />
            <mxPoint x="610" y="480" as="targetPoint" />
          </mxGeometry>
        </mxCell>
        <mxCell id="ot7N1fyEFP1pkoiua7gK-32" value="slave control" style="text;html=1;align=center;verticalAlign=middle;resizable=0;points=[];autosize=1;strokeColor=none;fillColor=none;" parent="1" vertex="1">
          <mxGeometry x="478" y="389" width="85" height="26" as="geometry" />
        </mxCell>
        <mxCell id="GXpPCEWB8gOt3Y2Xw7va-1" value="user input" style="text;html=1;align=center;verticalAlign=middle;resizable=0;points=[];autosize=1;strokeColor=none;fillColor=none;" vertex="1" parent="1">
          <mxGeometry x="311" y="248" width="71" height="26" as="geometry" />
        </mxCell>
        <mxCell id="GXpPCEWB8gOt3Y2Xw7va-3" value="" style="endArrow=classic;html=1;rounded=0;exitX=0.75;exitY=0;exitDx=0;exitDy=0;entryX=0.75;entryY=1;entryDx=0;entryDy=0;" edge="1" parent="1" source="ot7N1fyEFP1pkoiua7gK-4" target="ot7N1fyEFP1pkoiua7gK-5">
          <mxGeometry width="50" height="50" relative="1" as="geometry">
            <mxPoint x="460" y="290" as="sourcePoint" />
            <mxPoint x="510" y="240" as="targetPoint" />
          </mxGeometry>
        </mxCell>
        <mxCell id="GXpPCEWB8gOt3Y2Xw7va-4" value="sensor_readings" style="text;html=1;align=center;verticalAlign=middle;resizable=0;points=[];autosize=1;strokeColor=none;fillColor=none;" vertex="1" parent="1">
          <mxGeometry x="414" y="252" width="107" height="26" as="geometry" />
        </mxCell>
        <mxCell id="GXpPCEWB8gOt3Y2Xw7va-8" style="edgeStyle=orthogonalEdgeStyle;rounded=0;orthogonalLoop=1;jettySize=auto;html=1;exitX=1;exitY=0.5;exitDx=0;exitDy=0;entryX=0;entryY=0.5;entryDx=0;entryDy=0;" edge="1" parent="1" source="GXpPCEWB8gOt3Y2Xw7va-5" target="ot7N1fyEFP1pkoiua7gK-5">
          <mxGeometry relative="1" as="geometry" />
        </mxCell>
        <mxCell id="GXpPCEWB8gOt3Y2Xw7va-9" style="edgeStyle=orthogonalEdgeStyle;rounded=0;orthogonalLoop=1;jettySize=auto;html=1;exitX=0.5;exitY=1;exitDx=0;exitDy=0;entryX=0.113;entryY=-0.007;entryDx=0;entryDy=0;entryPerimeter=0;" edge="1" parent="1" source="GXpPCEWB8gOt3Y2Xw7va-5" target="ot7N1fyEFP1pkoiua7gK-4">
          <mxGeometry relative="1" as="geometry" />
        </mxCell>
        <mxCell id="GXpPCEWB8gOt3Y2Xw7va-5" value="&lt;b&gt;CONFIG&lt;/b&gt;&lt;br&gt;serial communication&lt;br&gt;setting SSID&lt;br&gt;setting password&lt;br&gt;saving config to EEPROM" style="rounded=0;whiteSpace=wrap;html=1;" vertex="1" parent="1">
          <mxGeometry x="83" y="148.5" width="148" height="90" as="geometry" />
        </mxCell>
      </root>
    </mxGraphModel>
  </diagram>
</mxfile>
